<?xml version="1.0" encoding="utf-8"?>
<!-- Generator: Adobe Illustrator 16.0.0, SVG Export Plug-In . SVG Version: 6.00 Build 0)  -->
<!DOCTYPE svg PUBLIC "-//W3C//DTD SVG 1.1//EN" "http://www.w3.org/Graphics/SVG/1.1/DTD/svg11.dtd">
<svg version="1.1" id="Layer_1" xmlns="http://www.w3.org/2000/svg" xmlns:xlink="http://www.w3.org/1999/xlink" x="0px" y="0px"
	 width="750px" height="750px" viewBox="0 0 750 750" enable-background="new 0 0 750 750" xml:space="preserve">
<path fill="#444444" d="M686.23,268.572c-0.086-0.348-0.476-0.622-0.722-0.929c-0.237,0.034-0.473,0.069-0.71,0.104
	c-0.191,2.374-0.633,4.758-0.527,7.119c0.214,4.779,0.739,9.543,1.107,14.315c1.451,18.885,0.398,37.681-1.341,56.518
	c-2.442,26.434-7.754,52.154-17.032,77.035c-12.954,34.739-31.969,65.622-59.095,91.108c-32.01,30.073-69.622,49.773-112.535,59.179
	c-25.43,5.574-51.129,8.252-77.208,6.445c-32.062-2.223-63.216-8.665-93.345-19.865c-6.723-2.496-12.701-1.619-18.817,1.87
	c-21.773,12.423-43.637,24.686-65.513,36.925c-2.627,1.471-5.539,2.432-8.673,3.781c0-1.252-0.076-1.806,0.012-2.33
	c1.239-7.5,2.399-15.019,3.78-22.494c2.728-14.77,5.556-29.518,8.412-44.264c0.375-1.931-0.125-3.077-1.75-4.229
	c-3.212-2.277-6.3-4.745-9.302-7.299c-10.808-9.188-19.682-20.088-27.93-31.558c-0.809-1.125-2.409-2.304-3.697-2.37
	c-12.839-0.664-25.687-1.176-38.537-1.566c-7.978-0.244-15.966-0.125-23.944-0.354c-2.991-0.085-5.968-0.683-9.521-1.117
	c0.834-1.032,1.087-1.414,1.404-1.729c15.361-15.311,30.549-30.802,46.191-45.817c5.449-5.229,7.897-10.885,7.957-18.345
	c0.132-16.388,3.012-32.317,9.777-47.381c2.15-4.79,4.412-9.529,6.674-14.268c0.94-1.97,0.282-2.801-1.731-3.364
	c-4.063-1.143-8.129-2.349-12.063-3.863c-3.542-1.364-4.817-4.085-3.854-7.098c0.937-2.927,3.69-4.37,7.267-3.766
	c0.829,0.142,1.645,0.389,2.448,0.646c4.021,1.292,8.052,2.557,12.05,3.92c2.845,0.971,5.369,0.671,7.509-1.542
	c2.738-2.834,5.458-5.688,8.165-8.553c1.46-1.549,1.133-2.859-0.335-4.339c-3.438-3.463-6.87-6.956-10.023-10.673
	c-1.915-2.258-3.473-4.869-4.885-7.486c-1.09-2.022-0.486-4.083,1.225-5.619c1.709-1.537,3.805-1.82,5.76-0.695
	c1.928,1.109,3.848,2.396,5.398,3.97c4.542,4.616,8.931,9.383,13.309,14.158c1.276,1.394,2.35,1.95,4.32,1.059
	c4.358-1.975,8.854-3.643,13.32-5.373c9.884-3.833,19.642-8.143,30.3-9.432c19.899-2.407,38.862,1.548,57.319,8.721
	c13.451,5.226,25.774,12.639,38.265,19.729c17.342,9.847,35.328,17.93,55.387,20.406c17.562,2.168,35.009,2.211,52.288-2.316
	c10.646-2.789,20.344-7.699,29.909-12.932c1.572-0.86,2.732-0.897,3.986,0.4c1.823,1.889,3.689,3.739,5.583,5.558
	c4.11,3.945,8.228,7.884,12.387,11.777c1.968,1.842,3.561,1.23,5.095-0.787c1.975-2.598,2.336-4.667,0.727-6.514
	c-2.035-2.335-4.121-4.628-6.177-6.945c-3.47-3.914-6.935-7.833-10.507-11.87c3.837-4.094,7.413-8.064,11.201-11.823
	c0.81-0.804,2.5-1.368,3.589-1.133c4.669,1.006,9.261,2.372,13.89,3.566c1.994,0.515,3.991,1.114,6.023,1.346
	c2.026,0.231,3.632-0.721,4.529-2.663c0.922-1.991,0.392-3.809-1.11-5.109c-1.234-1.069-2.792-1.898-4.344-2.437
	c-3.456-1.197-6.975-2.24-10.517-3.155c-1.853-0.48-2.183-1.159-1.458-2.954c2.036-5.05,3.751-10.229,5.807-15.27
	c7.205-17.672,11.747-35.83,10.676-55.116c-0.067-1.233,0.896-2.811,1.844-3.772c14.235-14.447,28.571-28.795,42.825-43.223
	c3.335-3.376,6.456-6.962,9.675-10.452c-0.165-0.283-0.327-0.566-0.49-0.849c-1.195,0-2.392,0.02-3.586-0.003
	c-21.876-0.417-43.751-0.867-65.627-1.214c-2.112-0.034-3.387-0.717-4.609-2.449c-10.88-15.401-22.662-29.96-38.603-40.571
	c-0.69-0.46-1.222-1.882-1.09-2.743c0.883-5.75,1.911-11.48,3-17.196c3-15.765,6.078-31.517,9.042-47.289
	c0.197-1.053-0.292-2.235-0.459-3.358c-1.119,0.248-2.372,0.251-3.337,0.78c-25.532,13.972-51.021,28.023-76.582,41.944
	c-1.39,0.756-3.465,1.013-4.996,0.622c-9.82-2.513-19.501-5.595-29.367-7.893c-41.205-9.599-82.664-12.532-124.62-4.944
	c-49.922,9.029-93.313,30.848-130.082,65.689c-31.225,29.589-54.265,64.795-70.273,104.644
	c-11.556,28.764-19.019,58.521-21.399,89.497c-2.071,26.944,1.002,53.471,6.785,79.704c7.791,35.339,21.513,68.354,40.431,99.167
	c21.419,34.889,48.36,64.83,81.608,88.818c39.601,28.568,83.542,46.874,131.954,53.842c16.059,2.312,32.248,3.927,48.433,5.093
	c17.051,1.229,33.906-1.565,50.717-4.143c48.402-7.412,93.786-23.094,135.177-49.583c51.616-33.034,90.426-77.446,116.928-132.604
	c20.405-42.468,29.833-87.61,31.714-134.466C698.368,330.666,693.827,299.433,686.23,268.572z M508.61,256.479
	c8.282,0.815,13.79,5.804,16.56,15.002c1.774,5.894-0.578,12.859-5.931,17.185c-1.998-1.726-4.026-3.477-6.101-5.267
	c0.834-1.457,1.599-2.727,2.302-4.03c1.776-3.3,1.676-6.458-0.771-9.425c-2.505-3.041-5.598-4.75-9.613-3.857
	c-1.999,0.443-4.048,1.024-5.826,1.995c-2.288,1.249-3.987,1.052-5.645-0.925c-0.642-0.767-1.548-1.312-2.451-2.054
	C494.69,258.516,500.585,255.688,508.61,256.479z M419.932,200.689c5.329-6.05,13.093-8.125,20.136-5.381
	c7.04,2.743,12.026,9.878,12.479,17.184c-1.251,3.39-2.361,6.842-3.827,10.138c-0.553,1.247-1.07,3.285-3.35,2.604
	c-2.591-0.775-4.24-3.064-3.879-5.475c0.136-0.919,0.462-1.815,0.752-2.706c1.349-4.145,1.129-8.063-2.189-11.197
	c-3.239-3.059-7.123-3.007-11.069-1.548c-1.848,0.682-3.694,1.414-5.424,2.339c-1.433,0.766-2.353,0.468-3.453-0.609
	C417.485,203.473,417.435,203.524,419.932,200.689z M302.713,423.655c0.064-0.849-0.053-1.965-0.565-2.542
	c-0.838-0.943-2.062-1.541-3.263-2.385c-6.298,6.957-6.823,16.709-1.475,23.171c5.836,7.047,15.453,8.724,23.329,3.688
	c5.709-3.648,5.111-3.425,0.605-7.899c-0.06-0.059-0.174-0.063-0.376-0.136c-0.963,0.597-1.973,1.27-3.024,1.867
	c-4.806,2.74-9.538,2.264-13.807-1.364c-3.46-2.938-4.216-6.804-2.34-12.061C302.081,425.202,302.65,424.452,302.713,423.655z
	 M228.935,351.238c-7.54,7.285-7.406,19.188,0.295,26.281c7.522,6.93,17.901,6.075,24.666-2.238
	c-1.283-2.379-2.815-3.778-5.646-2.473c-1.094,0.504-2.334,0.687-3.505,1.025c-4.721,1.369-8.881,0.692-12.273-3.18
	c-3.366-3.842-2.677-7.892-0.847-12.082C233.352,354.614,232.896,353.446,228.935,351.238z"/>
</svg>
